# xmcd
#
# Track frame offsets:
#	150
#	13135
#	27473
#	35814
#	49017
#	64672
#	81628
#	93810
#	111638
#	120236
#
# Disc length: 1851 seconds
# Revision: 0
# Processed by: cddbd v1.5.2PL0 Copyright (c) Steve Scherf et al.
# Submitted via: dBpowerAMP V12.0
#
DISCID=8607390a
DTITLE=BillieJoSpears,AKABillieJoeMoore,Beaumont,TX - WeJustCameApartAtTheDreams
DYEAR=1982
DGENRE=Country
TTITLE0=Can'tChangeMyHeart
TTITLE1=LoveDiesHard
TTITLE2=BabyOnMyMind
TTITLE3=Settin'MeUp
TTITLE4=BlowingAway
TTITLE5=WeJustCameApartAtTheDreams
TTITLE6=YouNeverCanTell{C'estLaVie}
TTITLE7=TooFarGone
TTITLE8=SweetDreams
TTITLE9=Ain'tNoMoney
EXTD=
EXTT0=
EXTT1=
EXTT2=
EXTT3=
EXTT4=
EXTT5=
EXTT6=
EXTT7=
EXTT8=
EXTT9=
PLAYORDER=
